<svg xmlns="http://www.w3.org/2000/svg" viewBox="0 0 152.01 49.16"><defs><style>.cls-1,.cls-2{fill:#972e35;}.cls-2{font-size:24px;font-family:ziticqtezhanti;}</style></defs><title>資產 2</title><g id="圖層_2" data-name="圖層 2"><g id="logo"><path class="cls-1" d="M45.2,28.83,43.43,25.2a1.4,1.4,0,0,1,0-1.23l1.77-3.63a4.12,4.12,0,0,0-1.78-5.48L39.85,13a1.37,1.37,0,0,1-.72-1l-.7-4A4.13,4.13,0,0,0,33.77,4.6l-4,.57a1.4,1.4,0,0,1-1.17-.38L25.7,2a4.13,4.13,0,0,0-5.77,0L17,4.79a1.4,1.4,0,0,1-1.17.38l-4-.57A4.12,4.12,0,0,0,7.2,8l-.7,4a1.38,1.38,0,0,1-.73,1l-3.56,1.9A4.12,4.12,0,0,0,.43,20.34L2.2,24a1.4,1.4,0,0,1,0,1.23L.43,28.83a4.12,4.12,0,0,0,1.78,5.48L5.77,36.2a1.42,1.42,0,0,1,.73,1l.7,4a4.12,4.12,0,0,0,4.66,3.38l4-.56a1.4,1.4,0,0,1,1.17.38l2.9,2.81a4.14,4.14,0,0,0,5.77,0l2.9-2.81A1.4,1.4,0,0,1,29.77,44l4,.56a4,4,0,0,0,.59,0,4.14,4.14,0,0,0,4.07-3.43l.7-4a1.4,1.4,0,0,1,.72-1l3.57-1.89A4.12,4.12,0,0,0,45.2,28.83ZM14.25,20.49a5.49,5.49,0,0,1-1-3.12h1.12a4.19,4.19,0,0,0,.81,2.49,4.63,4.63,0,0,1,4.13.12,10.06,10.06,0,0,0-.79,1.95,5.65,5.65,0,0,0-2.38.08A8.76,8.76,0,0,0,15.65,24a5.12,5.12,0,0,0-2.35-.06A3.93,3.93,0,0,1,14.25,20.49Zm7,11c-3.63-.73-6.81-2.88-7.71-6.51.95-.35,2.55.23,3.19.45A8.71,8.71,0,0,1,17,23a9.76,9.76,0,0,1,2.45.23,6,6,0,0,1,.75-2.53,14.9,14.9,0,0,1,1.49,1.84c2.2,3,3.11,3.74,7.6,3.47,1.21-.07,2.75-.23,3,.94C32.89,29.14,27.87,32.85,21.2,31.52Z"/><text class="cls-2" transform="translate(56.01 44.08)">辣椒体育</text><text class="cls-2" transform="translate(56.12 20.4) scale(1.5 1)">CHiLi</text></g></g></svg>