<?xml version="1.0"?>
<svg xmlns="http://www.w3.org/2000/svg" xmlns:xlink="http://www.w3.org/1999/xlink" xmlns:svgjs="http://svgjs.com/svgjs" version="1.1" width="512" height="512" x="0" y="0" viewBox="0 0 512 512" style="enable-background:new 0 0 512 512" xml:space="preserve" class=""><g><g xmlns="http://www.w3.org/2000/svg"><path d="m462.308 226.14c-1.811-.775-3.803-1.207-5.897-1.207h-353.467c-8.284 0-15 6.716-15 15v257.067c0 8.284 6.716 15 15 15h353.466c8.284 0 15-6.716 15-15v-255.094z" fill="#fad7d7" data-original="#faf0d7" style="" class=""/><path d="m502.378 295.543-120.686-209.033-30.696-17.722-303.753 175.372c-7.174 4.142-9.632 13.316-5.49 20.49l128.534 222.626c4.142 7.174 13.316 9.632 20.49 5.49l306.111-176.734c7.174-4.14 9.632-13.314 5.49-20.489z" fill="#efbfbf" data-original="#efe3bf" style="" class=""/><path d="m10.28 297.544c-4.142 7.174-1.684 16.348 5.49 20.49l222.626 128.534c7.174 4.142 16.348 1.684 20.49-5.49l176.734-306.111c4.142-7.174 1.684-16.348-5.49-20.49l-198.278-114.477h-49.785z" fill="#e3a7a7" data-original="#e3d5a7" style="" class=""/><path d="m279.677 383.467h-257.067c-8.284 0-15-6.716-15-15v-353.467c0-8.284 6.716-15 15-15h257.067c8.284 0 15 6.716 15 15v353.467c0 8.284-6.716 15-15 15z" fill="#fff0f0" data-original="#fffaf0" style="" class=""/><path d="m279.677 0h-128.534v383.467h128.534c8.284 0 15-6.716 15-15v-353.467c0-8.284-6.716-15-15-15z" fill="#fad7d7" data-original="#faf0d7" style="" class=""/><path d="m56.877 80.333c-8.284 0-15-6.716-15-15v-16.066c0-8.284 6.716-15 15-15s15 6.716 15 15v16.067c0 8.284-6.716 14.999-15 14.999z" fill="#c76289" data-original="#df2935" style="" class=""/><path d="m245.41 349.2c-8.284 0-15-6.716-15-15v-16.067c0-8.284 6.716-15 15-15s15 6.716 15 15v16.067c0 8.284-6.715 15-15 15z" fill="#a5496c" data-original="#a00803" style="" class=""/><path d="m81.999 209.817c-15.23-15.23-16.03-40.041-1.142-55.605 15.319-16.016 40.758-16.23 56.347-.64l13.94 13.93 13.93-13.93c16.004-15.809 42.428-15.304 57.521 1.912 13.763 15.7 12.458 39.57-2.306 54.333l-58.538 58.538c-5.858 5.858-15.355 5.858-21.213 0z" fill="#c76289" data-original="#df2935" style="" class=""/><path d="m161.75 268.354 58.538-58.538c14.763-14.763 16.069-38.633 2.306-54.333-15.092-17.216-41.517-17.721-57.521-1.912l-13.93 13.93v105.246c3.839.001 7.678-1.464 10.607-4.393z" fill="#a5496c" data-original="#a00803" style="" class=""/></g></g></svg>
